<svg version="1.1" id="Layer_1" xmlns="http://www.w3.org/2000/svg" xmlns:xlink="http://www.w3.org/1999/xlink" x="0px" y="0px"
	 width="100%" viewBox="0 0 512 512" xml:space="preserve">
<path fill="#C0392B" opacity="1.000000" stroke="none" 
	d="
M230.655243,330.902557 
	C212.100311,343.720520 191.780624,352.741669 169.807617,357.494354 
	C148.131271,362.182861 128.155487,358.046021 111.357452,342.765533 
	C105.292595,337.248596 99.731941,331.177399 93.596313,324.777100 
	C87.023445,313.725708 80.801445,303.252747 74.559547,292.791687 
	C73.818985,291.550568 72.969704,290.374298 72.170807,289.167969 
	C70.760086,284.658936 69.349365,280.149902 67.770309,274.885986 
	C64.352112,263.188690 63.408562,251.989746 63.755028,240.627457 
	C63.802792,239.061142 63.269653,237.477142 63.204956,235.538116 
	C63.602650,234.068130 63.843369,232.967056 63.992508,231.853729 
	C65.635498,219.588593 67.264252,207.321533 69.107613,194.727386 
	C71.899704,183.138657 74.514198,171.884933 77.033691,160.609985 
	C77.522804,158.421158 77.641609,156.149597 77.931229,153.916199 
	C81.614693,141.507294 84.862007,128.946182 89.121971,116.738449 
	C92.428879,107.261856 96.499794,97.965477 101.143456,89.064980 
	C106.230286,79.315071 115.330658,73.762932 125.362015,70.092873 
	C137.947662,65.488312 150.991043,62.770756 164.422958,61.957439 
	C171.789932,61.511364 179.152893,59.968498 186.481415,60.179413 
	C195.615936,60.442307 204.923599,61.115906 213.775940,63.216232 
	C226.346420,66.198753 239.028931,69.581207 250.845398,74.686501 
	C274.850403,85.057877 293.464661,101.982475 307.053284,124.550575 
	C311.585052,132.076904 313.132599,139.364929 311.071808,147.840225 
	C308.464722,158.562073 306.353180,169.404419 303.928131,180.934631 
	C303.201813,183.355362 302.388489,184.991837 301.976654,186.723770 
	C295.216431,215.154831 288.129456,243.431595 276.144714,270.303345 
	C265.886261,293.304474 252.883026,313.962830 232.161652,328.995239 
	C231.530441,329.453094 231.151688,330.258942 230.655243,330.902557 
M180.558594,304.147491 
	C200.422729,301.242828 217.722763,292.848175 232.620712,279.516296 
	C241.467377,271.599609 249.872070,263.223694 254.365387,251.894867 
	C255.089081,250.070251 254.658112,247.787674 254.760910,245.716797 
	C252.745529,245.902512 250.627625,245.751068 248.731079,246.327682 
	C234.428802,250.675980 220.401749,256.250549 205.844315,259.364532 
	C183.062790,264.237701 160.464508,262.942108 139.114426,252.113007 
	C122.808029,243.842148 110.429039,231.233002 99.356308,217.031693 
	C97.676147,214.876785 94.863480,213.604889 92.574654,211.924545 
	C91.742271,214.658676 90.203140,217.389145 90.188919,220.127518 
	C90.071457,242.749298 98.095642,262.414062 112.524765,279.615234 
	C130.187164,300.670898 153.039291,307.630951 180.558594,304.147491 
M271.306549,203.252396 
	C271.295105,202.254608 271.315857,201.255249 271.267426,200.259262 
	C270.425903,182.960571 259.917542,169.358643 244.947159,166.177917 
	C228.034592,162.584549 209.790543,170.928909 202.279724,185.814880 
	C201.595581,187.170807 200.916092,189.732208 201.529678,190.278183 
	C202.653198,191.277924 204.794754,191.644089 206.421768,191.463470 
	C210.042282,191.061569 213.668564,190.383759 217.184708,189.423660 
	C236.962952,184.023102 252.300705,190.970352 264.835358,206.171478 
	C265.980469,207.560150 267.822662,208.374023 269.341156,209.454819 
	C269.989044,207.686768 270.636932,205.918716 271.306549,203.252396 
M111.754601,164.921265 
	C125.294014,163.411133 137.050522,167.521027 147.355011,176.212143 
	C148.628296,177.286072 149.883957,178.383224 151.193466,179.411453 
	C155.151703,182.519440 157.042282,181.889694 157.661102,176.838013 
	C158.039520,173.748856 158.032608,170.464188 157.414276,167.427032 
	C154.782837,154.501968 142.686722,143.861053 129.854904,142.830643 
	C115.723000,141.695831 97.629761,151.883514 93.228302,163.566345 
	C92.801346,164.699615 92.584343,166.714752 93.199448,167.247757 
	C94.098915,168.027145 95.911865,168.226242 97.209099,167.987137 
	C101.777878,167.144882 106.292755,166.010193 111.754601,164.921265 
z"/>
<path fill="#FCC21B" opacity="1.000000" stroke="none" 
	d="
M230.806152,331.289642 
	C231.151688,330.258942 231.530441,329.453094 232.161652,328.995239 
	C252.883026,313.962830 265.886261,293.304474 276.144714,270.303345 
	C288.129456,243.431595 295.216431,215.154831 301.976654,186.723770 
	C302.388489,184.991837 303.201813,183.355362 303.997620,181.336990 
	C309.697540,179.878845 315.197144,178.563797 320.764801,177.674896 
	C335.888489,175.260361 350.994080,174.302414 366.394958,175.744232 
	C379.112946,176.934891 391.457642,178.766251 403.638123,182.777481 
	C416.362396,186.967773 425.349091,195.080597 430.845459,206.801712 
	C436.732605,219.356201 441.653046,232.364014 447.008331,245.946014 
	C450.693909,258.182556 454.366547,269.647034 458.032227,281.497406 
	C461.067108,294.249115 464.108917,306.614929 467.118164,319.392548 
	C468.571320,329.262421 470.147797,338.707520 471.504272,348.184082 
	C472.176605,352.881012 472.444244,357.635895 472.894958,362.364532 
	C472.285706,366.859680 471.611389,371.347107 471.079559,375.851410 
	C469.556702,388.749176 464.433960,400.514618 458.847809,411.944031 
	C453.231537,423.434998 446.779480,434.564575 440.038208,445.446503 
	C431.842590,458.676239 419.901062,468.019257 404.790497,471.285248 
	C395.553772,473.281677 385.416565,472.984192 375.965729,471.677673 
	C361.887390,469.731354 347.983582,466.289917 334.142700,462.921021 
	C318.565857,459.129547 303.180267,454.449951 289.813965,445.203522 
	C276.852844,436.237366 266.283173,424.949371 259.017365,410.003052 
	C254.207520,397.524506 249.552689,385.733917 244.897858,373.943298 
	C240.250946,359.854431 235.604019,345.765594 230.806152,331.289642 
M438.247864,369.343811 
	C429.696381,355.043640 417.199066,345.480377 401.911530,339.407806 
	C377.107697,329.555115 351.995728,334.821777 333.561310,354.083740 
	C320.473724,367.758881 312.585114,384.403229 308.080048,402.624359 
	C306.980743,407.070679 306.917236,411.872894 307.078064,416.487030 
	C307.153595,418.652466 308.437958,421.959717 310.006256,422.553864 
	C311.554108,423.140198 314.742157,421.489288 316.185547,419.893005 
	C322.100067,413.351807 327.675110,406.499420 333.281036,399.684174 
	C354.298889,374.132355 386.675079,364.663361 417.893890,375.467224 
	C424.417969,377.725037 430.342529,381.682953 436.635773,384.662109 
	C438.274719,385.437897 440.261871,385.478149 442.089111,385.856232 
	C442.316162,383.949493 443.126007,381.879913 442.648193,380.170105 
	C441.671112,376.673370 440.002014,373.369965 438.247864,369.343811 
M323.129303,289.539215 
	C321.925293,283.379944 320.936859,277.165009 319.370422,271.099335 
	C318.963013,269.521576 316.823029,267.470337 315.347351,267.357574 
	C313.968964,267.252228 311.823456,269.124451 311.029968,270.652863 
	C301.290039,289.414062 285.834015,302.134277 267.909271,312.466522 
	C264.706116,314.312927 262.298523,317.539398 259.523621,320.128662 
	C262.497925,323.108154 265.413452,326.150482 268.486420,329.024475 
	C269.288177,329.774353 270.552948,330.079407 271.650879,330.454865 
	C288.783813,336.313080 313.342926,332.263214 320.837250,306.220459 
	C322.288422,301.177643 322.402771,295.750092 323.129303,289.539215 
M363.142883,270.164520 
	C367.787537,276.969849 371.463593,284.775604 377.261963,290.389282 
	C393.427551,306.040070 422.287750,301.171417 432.029572,281.888702 
	C436.972748,272.104279 435.049072,268.838318 424.222534,269.192780 
	C404.211334,269.847992 385.063019,266.985535 367.754242,256.085358 
	C367.334747,255.821167 366.875092,255.598633 366.406250,255.438416 
	C362.897919,254.239594 360.598846,255.322159 360.908264,259.198792 
	C361.182434,262.633759 362.210480,266.008545 363.142883,270.164520 
z"/>
<path fill="#F45125" opacity="1.000000" stroke="none" 
	d="
M244.452850,373.966736 
	C249.552689,385.733917 254.207520,397.524506 258.868896,409.676514 
	C252.731842,410.767792 245.708786,409.887390 240.669586,412.639496 
	C234.517258,415.999512 229.333923,421.878998 224.970062,427.611664 
	C216.165955,439.177338 206.775803,449.300537 191.949554,453.182159 
	C180.007751,456.308624 168.632721,455.306458 157.469696,450.705536 
	C152.995300,448.861359 148.850235,446.218231 144.803436,442.960236 
	C156.426086,442.424744 167.440216,441.213684 177.842255,435.369965 
	C163.758621,432.967346 151.987885,427.106873 143.043533,413.538666 
	C148.899323,414.712585 153.452911,415.772369 158.057343,416.518280 
	C168.108719,418.146545 178.683868,420.803284 187.502579,413.866364 
	C193.433289,409.201202 198.323532,402.982147 202.891891,396.869812 
	C209.948395,387.428467 217.055115,378.323517 229.480225,375.936340 
	C234.270584,375.015991 239.162308,374.623291 244.452850,373.966736 
z"/>
<path fill="#F35126" opacity="1.000000" stroke="none" 
	d="
M63.005451,235.901321 
	C63.269653,237.477142 63.802792,239.061142 63.755028,240.627457 
	C63.408562,251.989746 64.352112,263.188690 67.604263,274.501465 
	C52.322357,269.321259 38.438702,261.464050 27.672550,249.068283 
	C16.841957,236.598328 14.358566,221.858337 18.458128,206.235519 
	C24.615215,182.771790 40.833290,168.253036 62.449379,159.057510 
	C67.205727,157.034164 72.245819,155.677811 77.543236,153.965256 
	C77.641609,156.149597 77.522804,158.421158 77.033691,160.609985 
	C74.514198,171.884933 71.899704,183.138657 68.703339,194.706512 
	C66.349823,195.345306 64.561989,195.517303 62.880898,196.035553 
	C52.514862,199.231384 42.249538,202.442184 38.657322,214.668488 
	C37.486141,218.654663 38.260490,221.490768 40.913353,224.473953 
	C46.852325,231.152496 54.813454,233.699341 63.005451,235.901321 
z"/>
<path fill="#F45125" opacity="1.000000" stroke="none" 
	d="
M71.984756,289.458923 
	C72.969704,290.374298 73.818985,291.550568 74.559547,292.791687 
	C80.801445,303.252747 87.023445,313.725708 93.395462,324.520630 
	C72.578011,338.525024 57.946922,357.652069 46.632755,379.894318 
	C42.596771,365.203613 45.646072,351.232452 48.923691,336.849792 
	C37.973953,341.963318 30.813578,350.286804 24.569082,361.079926 
	C22.751133,348.206940 24.967180,337.509949 30.980688,327.505707 
	C40.931171,310.951660 56.293068,300.280579 71.984756,289.458923 
z"/>
<path fill="#F45125" opacity="1.000000" stroke="none" 
	d="
M473.201416,362.157837 
	C472.444244,357.635895 472.176605,352.881012 471.504272,348.184082 
	C470.147797,338.707520 468.571320,329.262421 467.423462,319.266510 
	C473.633179,314.636047 478.164062,309.486572 481.074280,302.843750 
	C485.563141,292.597534 480.155914,284.293213 471.690948,282.173737 
	C467.325378,281.080688 462.601288,281.419617 458.039185,281.111511 
	C454.366547,269.647034 450.693909,258.182556 447.057861,246.327545 
	C458.992004,246.031174 470.466034,247.563766 480.513092,254.805862 
	C487.059296,259.524506 490.513916,266.292480 492.921997,273.535553 
	C500.203705,295.437531 499.820679,317.253906 489.730591,338.178009 
	C486.167603,345.566650 480.469330,351.925781 475.744019,358.753571 
	C475.003876,359.823059 474.253479,360.885468 473.201416,362.157837 
z"/>
<path fill="#E6B0AA" opacity="1.000000" stroke="none" 
	d="
M180.116913,304.201904 
	C153.039291,307.630951 130.187164,300.670898 112.524765,279.615234 
	C98.095642,262.414062 90.071457,242.749298 90.188919,220.127518 
	C90.203140,217.389145 91.742271,214.658676 92.574654,211.924545 
	C94.863480,213.604889 97.676147,214.876785 99.356308,217.031693 
	C110.429039,231.233002 122.808029,243.842148 139.114426,252.113007 
	C160.464508,262.942108 183.062790,264.237701 205.844315,259.364532 
	C220.401749,256.250549 234.428802,250.675980 248.731079,246.327682 
	C250.627625,245.751068 252.745529,245.902512 254.760910,245.716797 
	C254.658112,247.787674 255.089081,250.070251 254.365387,251.894867 
	C249.872070,263.223694 241.467377,271.599609 232.620712,279.516296 
	C217.722763,292.848175 200.422729,301.242828 180.116913,304.201904 
z"/>
<path fill="#E6B0AA" opacity="1.000000" stroke="none" 
	d="
M271.295685,203.701538 
	C270.636932,205.918716 269.989044,207.686768 269.341156,209.454819 
	C267.822662,208.374023 265.980469,207.560150 264.835358,206.171478 
	C252.300705,190.970352 236.962952,184.023102 217.184708,189.423660 
	C213.668564,190.383759 210.042282,191.061569 206.421768,191.463470 
	C204.794754,191.644089 202.653198,191.277924 201.529678,190.278183 
	C200.916092,189.732208 201.595581,187.170807 202.279724,185.814880 
	C209.790543,170.928909 228.034592,162.584549 244.947159,166.177917 
	C259.917542,169.358643 270.425903,182.960571 271.267426,200.259262 
	C271.315857,201.255249 271.295105,202.254608 271.295685,203.701538 
z"/>
<path fill="#E6B0AA" opacity="1.000000" stroke="none" 
	d="
M111.291344,164.953857 
	C106.292755,166.010193 101.777878,167.144882 97.209099,167.987137 
	C95.911865,168.226242 94.098915,168.027145 93.199448,167.247757 
	C92.584343,166.714752 92.801346,164.699615 93.228302,163.566345 
	C97.629761,151.883514 115.723000,141.695831 129.854904,142.830643 
	C142.686722,143.861053 154.782837,154.501968 157.414276,167.427032 
	C158.032608,170.464188 158.039520,173.748856 157.661102,176.838013 
	C157.042282,181.889694 155.151703,182.519440 151.193466,179.411453 
	C149.883957,178.383224 148.628296,177.286072 147.355011,176.212143 
	C137.050522,167.521027 125.294014,163.411133 111.291344,164.953857 
z"/>
<path fill="#000000" opacity="1.000000" stroke="none" 
	d="
M63.204956,235.538116 
	C54.813454,233.699341 46.852325,231.152496 40.913353,224.473953 
	C38.260490,221.490768 37.486141,218.654663 38.657322,214.668488 
	C42.249538,202.442184 52.514862,199.231384 62.880898,196.035553 
	C64.561989,195.517303 66.349823,195.345306 68.492592,195.034134 
	C67.264252,207.321533 65.635498,219.588593 63.992508,231.853729 
	C63.843369,232.967056 63.602650,234.068130 63.204956,235.538116 
z"/>
<path fill="#9C7615" opacity="1.000000" stroke="none" 
	d="
M438.432861,369.665344 
	C440.002014,373.369965 441.671112,376.673370 442.648193,380.170105 
	C443.126007,381.879913 442.316162,383.949493 442.089111,385.856232 
	C440.261871,385.478149 438.274719,385.437897 436.635773,384.662109 
	C430.342529,381.682953 424.417969,377.725037 417.893890,375.467224 
	C386.675079,364.663361 354.298889,374.132355 333.281036,399.684174 
	C327.675110,406.499420 322.100067,413.351807 316.185547,419.893005 
	C314.742157,421.489288 311.554108,423.140198 310.006256,422.553864 
	C308.437958,421.959717 307.153595,418.652466 307.078064,416.487030 
	C306.917236,411.872894 306.980743,407.070679 308.080048,402.624359 
	C312.585114,384.403229 320.473724,367.758881 333.561310,354.083740 
	C351.995728,334.821777 377.107697,329.555115 401.911530,339.407806 
	C417.199066,345.480377 429.696381,355.043640 438.432861,369.665344 
z"/>
<path fill="#9C7615" opacity="1.000000" stroke="none" 
	d="
M323.131531,290.019623 
	C322.402771,295.750092 322.288422,301.177643 320.837250,306.220459 
	C313.342926,332.263214 288.783813,336.313080 271.650879,330.454865 
	C270.552948,330.079407 269.288177,329.774353 268.486420,329.024475 
	C265.413452,326.150482 262.497925,323.108154 259.523621,320.128662 
	C262.298523,317.539398 264.706116,314.312927 267.909271,312.466522 
	C285.834015,302.134277 301.290039,289.414062 311.029968,270.652863 
	C311.823456,269.124451 313.968964,267.252228 315.347351,267.357574 
	C316.823029,267.470337 318.963013,269.521576 319.370422,271.099335 
	C320.936859,277.165009 321.925293,283.379944 323.131531,290.019623 
z"/>
<path fill="#9C7615" opacity="1.000000" stroke="none" 
	d="
M363.024292,269.787231 
	C362.210480,266.008545 361.182434,262.633759 360.908264,259.198792 
	C360.598846,255.322159 362.897919,254.239594 366.406250,255.438416 
	C366.875092,255.598633 367.334747,255.821167 367.754242,256.085358 
	C385.063019,266.985535 404.211334,269.847992 424.222534,269.192780 
	C435.049072,268.838318 436.972748,272.104279 432.029572,281.888702 
	C422.287750,301.171417 393.427551,306.040070 377.261963,290.389282 
	C371.463593,284.775604 367.787537,276.969849 363.024292,269.787231 
z"/>
<path fill="#000000" opacity="1.000000" stroke="none" 
	d="
M458.032227,281.497406 
	C462.601288,281.419617 467.325378,281.080688 471.690948,282.173737 
	C480.155914,284.293213 485.563141,292.597534 481.074280,302.843750 
	C478.164062,309.486572 473.633179,314.636047 467.455994,318.854706 
	C464.108917,306.614929 461.067108,294.249115 458.032227,281.497406 
z"/>
</svg>