<?xml version="1.0" encoding="UTF-8" standalone="no"?>
<svg
   version="1.1"
   id="Layer_1"
   x="0px"
   y="0px"
   width="100%"
   viewBox="0 0 512 512"
   xml:space="preserve"
   sodipodi:docname="gtraits_container_icon_ui.svg"
   inkscape:version="1.4 (e7c3feb100, 2024-10-09)"
   xmlns:inkscape="http://www.inkscape.org/namespaces/inkscape"
   xmlns:sodipodi="http://sodipodi.sourceforge.net/DTD/sodipodi-0.dtd"
   xmlns="http://www.w3.org/2000/svg"
   xmlns:svg="http://www.w3.org/2000/svg"><defs
   id="defs14" /><sodipodi:namedview
   id="namedview14"
   pagecolor="#ffffff"
   bordercolor="#000000"
   borderopacity="0.25"
   inkscape:showpageshadow="2"
   inkscape:pageopacity="0.0"
   inkscape:pagecheckerboard="0"
   inkscape:deskcolor="#d1d1d1"
   inkscape:zoom="1.0606602"
   inkscape:cx="204.11816"
   inkscape:cy="331.86878"
   inkscape:window-width="1680"
   inkscape:window-height="997"
   inkscape:window-x="0"
   inkscape:window-y="0"
   inkscape:window-maximized="1"
   inkscape:current-layer="Layer_1" />
<path
   fill="#429ADF"
   opacity="1.000000"
   stroke="none"
   d=" M230.655243,330.902557   C212.100311,343.720520 191.780624,352.741669 169.807617,357.494354   C148.131271,362.182861 128.155487,358.046021 111.357452,342.765533   C105.292595,337.248596 99.731941,331.177399 93.596313,324.777100   C87.023445,313.725708 80.801445,303.252747 74.559547,292.791687   C73.818985,291.550568 72.969704,290.374298 72.170807,289.167969   C70.760086,284.658936 69.349365,280.149902 67.770309,274.885986   C64.352112,263.188690 63.408562,251.989746 63.755028,240.627457   C63.802792,239.061142 63.269653,237.477142 63.204956,235.538116   C63.602650,234.068130 63.843369,232.967056 63.992508,231.853729   C65.635498,219.588593 67.264252,207.321533 69.107613,194.727386   C71.899704,183.138657 74.514198,171.884933 77.033691,160.609985   C77.522804,158.421158 77.641609,156.149597 77.931229,153.916199   C81.614693,141.507294 84.862007,128.946182 89.121971,116.738449   C92.428879,107.261856 96.499794,97.965477 101.143456,89.064980   C106.230286,79.315071 115.330658,73.762932 125.362015,70.092873   C137.947662,65.488312 150.991043,62.770756 164.422958,61.957439   C171.789932,61.511364 179.152893,59.968498 186.481415,60.179413   C195.615936,60.442307 204.923599,61.115906 213.775940,63.216232   C226.346420,66.198753 239.028931,69.581207 250.845398,74.686501   C274.850403,85.057877 293.464661,101.982475 307.053284,124.550575   C311.585052,132.076904 313.132599,139.364929 311.071808,147.840225   C308.464722,158.562073 306.353180,169.404419 303.928131,180.934631   C303.201813,183.355362 302.388489,184.991837 301.976654,186.723770   C295.216431,215.154831 288.129456,243.431595 276.144714,270.303345   C265.886261,293.304474 252.883026,313.962830 232.161652,328.995239   C231.530441,329.453094 231.151688,330.258942 230.655243,330.902557  M180.558594,304.147491   C200.422729,301.242828 217.722763,292.848175 232.620712,279.516296   C241.467377,271.599609 249.872070,263.223694 254.365387,251.894867   C255.089081,250.070251 254.658112,247.787674 254.760910,245.716797   C252.745529,245.902512 250.627625,245.751068 248.731079,246.327682   C234.428802,250.675980 220.401749,256.250549 205.844315,259.364532   C183.062790,264.237701 160.464508,262.942108 139.114426,252.113007   C122.808029,243.842148 110.429039,231.233002 99.356308,217.031693   C97.676147,214.876785 94.863480,213.604889 92.574654,211.924545   C91.742271,214.658676 90.203140,217.389145 90.188919,220.127518   C90.071457,242.749298 98.095642,262.414062 112.524765,279.615234   C130.187164,300.670898 153.039291,307.630951 180.558594,304.147491  M271.306549,203.252396   C271.295105,202.254608 271.315857,201.255249 271.267426,200.259262   C270.425903,182.960571 259.917542,169.358643 244.947159,166.177917   C228.034592,162.584549 209.790543,170.928909 202.279724,185.814880   C201.595581,187.170807 200.916092,189.732208 201.529678,190.278183   C202.653198,191.277924 204.794754,191.644089 206.421768,191.463470   C210.042282,191.061569 213.668564,190.383759 217.184708,189.423660   C236.962952,184.023102 252.300705,190.970352 264.835358,206.171478   C265.980469,207.560150 267.822662,208.374023 269.341156,209.454819   C269.989044,207.686768 270.636932,205.918716 271.306549,203.252396  M111.754601,164.921265   C125.294014,163.411133 137.050522,167.521027 147.355011,176.212143   C148.628296,177.286072 149.883957,178.383224 151.193466,179.411453   C155.151703,182.519440 157.042282,181.889694 157.661102,176.838013   C158.039520,173.748856 158.032608,170.464188 157.414276,167.427032   C154.782837,154.501968 142.686722,143.861053 129.854904,142.830643   C115.723000,141.695831 97.629761,151.883514 93.228302,163.566345   C92.801346,164.699615 92.584343,166.714752 93.199448,167.247757   C94.098915,168.027145 95.911865,168.226242 97.209099,167.987137   C101.777878,167.144882 106.292755,166.010193 111.754601,164.921265  z"
   id="path1" />
<path
   fill="#FCC21B"
   opacity="1"
   stroke="none"
   d="m 230.80615,331.28964 c 0.34554,-1.0307 0.72429,-1.83655 1.3555,-2.2944 20.72138,-15.03241 33.72461,-35.69077 43.98306,-58.6919 11.98475,-26.87175 19.07172,-55.14851 25.83194,-83.57957 0.41184,-1.73193 1.22516,-3.36841 2.02097,-5.38678 5.69992,-1.45815 11.19952,-2.77319 16.76718,-3.66209 15.12369,-2.41454 30.22928,-3.37249 45.63016,-1.93067 12.71799,1.19066 25.06268,3.02202 37.24316,7.03325 12.72428,4.19029 21.71097,12.30312 27.20734,24.02423 5.88714,12.55449 10.80759,25.5623 16.16287,39.1443 3.68558,12.23655 7.35822,23.70102 11.0239,35.5514 3.03488,12.75171 6.07669,25.11752 9.08593,37.89514 1.45316,9.86987 3.02964,19.31497 4.38611,28.79153 0.67233,4.69693 0.93997,9.45181 1.39069,14.18045 -0.60925,4.49515 -1.28357,8.98258 -1.8154,13.48688 -1.52286,12.89777 -6.6456,24.66321 -12.23175,36.09262 -5.61627,11.49097 -12.06833,22.62054 -18.8096,33.50247 -8.19562,13.22974 -20.13715,22.57276 -35.24771,25.83875 -9.23673,1.99643 -19.37394,1.69894 -28.82477,0.39242 -14.07834,-1.94632 -27.98215,-5.38775 -41.82303,-8.75665 -15.57684,-3.79147 -30.96243,-8.47107 -44.32874,-17.7175 -12.96112,-8.96615 -23.53079,-20.25415 -30.7966,-35.20047 -4.80984,-12.47854 -9.46467,-24.26913 -14.1195,-36.05975 -4.64691,-14.08887 -9.29384,-28.17771 -14.09171,-42.65366 m 207.44171,38.05417 c -8.55148,-14.30017 -21.04879,-23.86343 -36.33633,-29.936 -24.80383,-9.8527 -49.9158,-4.58603 -68.35022,14.67593 -13.08759,13.67514 -20.9762,30.31949 -25.48126,48.54062 -1.09931,4.44632 -1.16281,9.24853 -1.00199,13.86267 0.0755,2.16544 1.3599,5.47269 2.9282,6.06683 1.54785,0.58634 4.7359,-1.06457 6.17929,-2.66085 5.91452,-6.5412 11.48956,-13.39359 17.09549,-20.20884 21.01785,-25.55181 53.39404,-35.02081 84.61285,-24.21695 6.52408,2.25782 12.44864,6.21573 18.74188,9.19489 1.63895,0.77579 3.6261,0.81604 5.45334,1.19412 0.22705,-1.90674 1.0369,-3.97632 0.55908,-5.68613 -0.97708,-3.49673 -2.64618,-6.80014 -4.40033,-10.82629 M 323.1293,289.53922 c -1.20401,-6.15928 -2.19244,-12.37421 -3.75888,-18.43989 -0.40741,-1.57775 -2.54739,-3.62899 -4.02307,-3.74176 -1.37839,-0.10534 -3.52389,1.76688 -4.31738,3.29529 -9.73993,18.7612 -25.19595,31.48142 -43.1207,41.81366 -3.20315,1.84641 -5.61075,5.07288 -8.38565,7.66214 2.9743,2.97949 5.88983,6.02182 8.9628,8.89581 0.80176,0.74988 2.06653,1.05494 3.16446,1.43039 17.13293,5.85822 41.69205,1.80835 49.18637,-24.2344 1.45117,-5.04282 1.56552,-10.47037 2.29205,-16.68124 m 40.01358,-19.3747 c 4.64466,6.80533 8.32071,14.61108 14.11908,20.22476 16.16559,15.65079 45.02579,10.78214 54.76761,-8.50058 4.94318,-9.78442 3.0195,-13.05038 -7.80704,-12.69592 -20.0112,0.65521 -39.15951,-2.20724 -56.46829,-13.10742 -0.41949,-0.26419 -0.87915,-0.48673 -1.34799,-0.64694 -3.50833,-1.19883 -5.8074,-0.11626 -5.49799,3.76037 0.27417,3.43497 1.30222,6.80976 2.23462,10.96573 z"
   id="path2"
   style="fill:#95f403;fill-opacity:1"
   sodipodi:nodetypes="ccsscsssscccscsssssssccccssssscssscsccsscscscsccssssssc" />
<path
   fill="#F45125"
   opacity="1.000000"
   stroke="none"
   d=" M244.452850,373.966736   C249.552689,385.733917 254.207520,397.524506 258.868896,409.676514   C252.731842,410.767792 245.708786,409.887390 240.669586,412.639496   C234.517258,415.999512 229.333923,421.878998 224.970062,427.611664   C216.165955,439.177338 206.775803,449.300537 191.949554,453.182159   C180.007751,456.308624 168.632721,455.306458 157.469696,450.705536   C152.995300,448.861359 148.850235,446.218231 144.803436,442.960236   C156.426086,442.424744 167.440216,441.213684 177.842255,435.369965   C163.758621,432.967346 151.987885,427.106873 143.043533,413.538666   C148.899323,414.712585 153.452911,415.772369 158.057343,416.518280   C168.108719,418.146545 178.683868,420.803284 187.502579,413.866364   C193.433289,409.201202 198.323532,402.982147 202.891891,396.869812   C209.948395,387.428467 217.055115,378.323517 229.480225,375.936340   C234.270584,375.015991 239.162308,374.623291 244.452850,373.966736  z"
   id="path3" />
<path
   fill="#F35126"
   opacity="1.000000"
   stroke="none"
   d=" M63.005451,235.901321   C63.269653,237.477142 63.802792,239.061142 63.755028,240.627457   C63.408562,251.989746 64.352112,263.188690 67.604263,274.501465   C52.322357,269.321259 38.438702,261.464050 27.672550,249.068283   C16.841957,236.598328 14.358566,221.858337 18.458128,206.235519   C24.615215,182.771790 40.833290,168.253036 62.449379,159.057510   C67.205727,157.034164 72.245819,155.677811 77.543236,153.965256   C77.641609,156.149597 77.522804,158.421158 77.033691,160.609985   C74.514198,171.884933 71.899704,183.138657 68.703339,194.706512   C66.349823,195.345306 64.561989,195.517303 62.880898,196.035553   C52.514862,199.231384 42.249538,202.442184 38.657322,214.668488   C37.486141,218.654663 38.260490,221.490768 40.913353,224.473953   C46.852325,231.152496 54.813454,233.699341 63.005451,235.901321  z"
   id="path4" />
<path
   fill="#F45125"
   opacity="1.000000"
   stroke="none"
   d=" M71.984756,289.458923   C72.969704,290.374298 73.818985,291.550568 74.559547,292.791687   C80.801445,303.252747 87.023445,313.725708 93.395462,324.520630   C72.578011,338.525024 57.946922,357.652069 46.632755,379.894318   C42.596771,365.203613 45.646072,351.232452 48.923691,336.849792   C37.973953,341.963318 30.813578,350.286804 24.569082,361.079926   C22.751133,348.206940 24.967180,337.509949 30.980688,327.505707   C40.931171,310.951660 56.293068,300.280579 71.984756,289.458923  z"
   id="path5" />
<path
   fill="#F45125"
   opacity="1.000000"
   stroke="none"
   d=" M473.201416,362.157837   C472.444244,357.635895 472.176605,352.881012 471.504272,348.184082   C470.147797,338.707520 468.571320,329.262421 467.423462,319.266510   C473.633179,314.636047 478.164062,309.486572 481.074280,302.843750   C485.563141,292.597534 480.155914,284.293213 471.690948,282.173737   C467.325378,281.080688 462.601288,281.419617 458.039185,281.111511   C454.366547,269.647034 450.693909,258.182556 447.057861,246.327545   C458.992004,246.031174 470.466034,247.563766 480.513092,254.805862   C487.059296,259.524506 490.513916,266.292480 492.921997,273.535553   C500.203705,295.437531 499.820679,317.253906 489.730591,338.178009   C486.167603,345.566650 480.469330,351.925781 475.744019,358.753571   C475.003876,359.823059 474.253479,360.885468 473.201416,362.157837  z"
   id="path6" />
<path
   fill="#193E52"
   opacity="1.000000"
   stroke="none"
   d=" M180.116913,304.201904   C153.039291,307.630951 130.187164,300.670898 112.524765,279.615234   C98.095642,262.414062 90.071457,242.749298 90.188919,220.127518   C90.203140,217.389145 91.742271,214.658676 92.574654,211.924545   C94.863480,213.604889 97.676147,214.876785 99.356308,217.031693   C110.429039,231.233002 122.808029,243.842148 139.114426,252.113007   C160.464508,262.942108 183.062790,264.237701 205.844315,259.364532   C220.401749,256.250549 234.428802,250.675980 248.731079,246.327682   C250.627625,245.751068 252.745529,245.902512 254.760910,245.716797   C254.658112,247.787674 255.089081,250.070251 254.365387,251.894867   C249.872070,263.223694 241.467377,271.599609 232.620712,279.516296   C217.722763,292.848175 200.422729,301.242828 180.116913,304.201904  z"
   id="path7" />
<path
   fill="#1A3E53"
   opacity="1.000000"
   stroke="none"
   d=" M271.295685,203.701538   C270.636932,205.918716 269.989044,207.686768 269.341156,209.454819   C267.822662,208.374023 265.980469,207.560150 264.835358,206.171478   C252.300705,190.970352 236.962952,184.023102 217.184708,189.423660   C213.668564,190.383759 210.042282,191.061569 206.421768,191.463470   C204.794754,191.644089 202.653198,191.277924 201.529678,190.278183   C200.916092,189.732208 201.595581,187.170807 202.279724,185.814880   C209.790543,170.928909 228.034592,162.584549 244.947159,166.177917   C259.917542,169.358643 270.425903,182.960571 271.267426,200.259262   C271.315857,201.255249 271.295105,202.254608 271.295685,203.701538  z"
   id="path8" />
<path
   fill="#1A3F53"
   opacity="1.000000"
   stroke="none"
   d=" M111.291344,164.953857   C106.292755,166.010193 101.777878,167.144882 97.209099,167.987137   C95.911865,168.226242 94.098915,168.027145 93.199448,167.247757   C92.584343,166.714752 92.801346,164.699615 93.228302,163.566345   C97.629761,151.883514 115.723000,141.695831 129.854904,142.830643   C142.686722,143.861053 154.782837,154.501968 157.414276,167.427032   C158.032608,170.464188 158.039520,173.748856 157.661102,176.838013   C157.042282,181.889694 155.151703,182.519440 151.193466,179.411453   C149.883957,178.383224 148.628296,177.286072 147.355011,176.212143   C137.050522,167.521027 125.294014,163.411133 111.291344,164.953857  z"
   id="path9" />
<path
   fill="#000000"
   opacity="1.000000"
   stroke="none"
   d=" M63.204956,235.538116   C54.813454,233.699341 46.852325,231.152496 40.913353,224.473953   C38.260490,221.490768 37.486141,218.654663 38.657322,214.668488   C42.249538,202.442184 52.514862,199.231384 62.880898,196.035553   C64.561989,195.517303 66.349823,195.345306 68.492592,195.034134   C67.264252,207.321533 65.635498,219.588593 63.992508,231.853729   C63.843369,232.967056 63.602650,234.068130 63.204956,235.538116  z"
   id="path10" />
<path
   fill="#9C7615"
   opacity="1.000000"
   stroke="none"
   d=" M438.432861,369.665344   C440.002014,373.369965 441.671112,376.673370 442.648193,380.170105   C443.126007,381.879913 442.316162,383.949493 442.089111,385.856232   C440.261871,385.478149 438.274719,385.437897 436.635773,384.662109   C430.342529,381.682953 424.417969,377.725037 417.893890,375.467224   C386.675079,364.663361 354.298889,374.132355 333.281036,399.684174   C327.675110,406.499420 322.100067,413.351807 316.185547,419.893005   C314.742157,421.489288 311.554108,423.140198 310.006256,422.553864   C308.437958,421.959717 307.153595,418.652466 307.078064,416.487030   C306.917236,411.872894 306.980743,407.070679 308.080048,402.624359   C312.585114,384.403229 320.473724,367.758881 333.561310,354.083740   C351.995728,334.821777 377.107697,329.555115 401.911530,339.407806   C417.199066,345.480377 429.696381,355.043640 438.432861,369.665344  z"
   id="path11"
   style="fill:#569c15;fill-opacity:1" />
<path
   fill="#9C7615"
   opacity="1.000000"
   stroke="none"
   d=" M323.131531,290.019623   C322.402771,295.750092 322.288422,301.177643 320.837250,306.220459   C313.342926,332.263214 288.783813,336.313080 271.650879,330.454865   C270.552948,330.079407 269.288177,329.774353 268.486420,329.024475   C265.413452,326.150482 262.497925,323.108154 259.523621,320.128662   C262.298523,317.539398 264.706116,314.312927 267.909271,312.466522   C285.834015,302.134277 301.290039,289.414062 311.029968,270.652863   C311.823456,269.124451 313.968964,267.252228 315.347351,267.357574   C316.823029,267.470337 318.963013,269.521576 319.370422,271.099335   C320.936859,277.165009 321.925293,283.379944 323.131531,290.019623  z"
   id="path12"
   style="fill:#569c15;fill-opacity:1" />
<path
   fill="#9c7615"
   opacity="1"
   stroke="none"
   d="m 363.02429,269.78723 c -0.81381,-3.77868 -1.84186,-7.15347 -2.11603,-10.58844 -0.30941,-3.87663 1.98966,-4.9592 5.49799,-3.76037 0.46884,0.16021 0.9285,0.38275 1.34799,0.64694 17.30878,10.90018 36.45709,13.76263 56.46829,13.10742 10.82654,-0.35446 12.75022,2.9115 7.80704,12.69592 -9.74182,19.28272 -38.60202,24.15137 -54.76761,8.50058 -5.79837,-5.61368 -9.47442,-13.41943 -14.23767,-20.60205 z"
   id="path13"
   sodipodi:nodetypes="csscsssc"
   style="fill:#569c15;fill-opacity:1" />
<path
   fill="#000000"
   opacity="1.000000"
   stroke="none"
   d=" M458.032227,281.497406   C462.601288,281.419617 467.325378,281.080688 471.690948,282.173737   C480.155914,284.293213 485.563141,292.597534 481.074280,302.843750   C478.164062,309.486572 473.633179,314.636047 467.455994,318.854706   C464.108917,306.614929 461.067108,294.249115 458.032227,281.497406  z"
   id="path14" />
</svg>
